Nunito-Black.ufo
<glyph name="ampersand" format="1">
  <advance width="1580"/>
  <unicode hex="0026"/>
  <outline>
    <contour>
      <point x="624" y="-25" type="curve" smooth="yes"/>
      <point x="852" y="-25"/>
      <point x="972" y="57"/>
      <point x="1069" y="149" type="curve"/>
      <point x="1214" y="3" type="line" smooth="yes"/>
      <point x="1234" y="-17"/>
      <point x="1252" y="-23"/>
      <point x="1275" y="-23" type="curve" smooth="yes"/>
      <point x="1346" y="-23"/>
      <point x="1436" y="61"/>
      <point x="1436" y="134" type="curve" smooth="yes"/>
      <point x="1436" y="147"/>
      <point x="1432" y="170"/>
      <point x="1416" y="186" type="curve" smooth="yes"/>
      <point x="1282" y="319" type="line"/>
      <point x="1380" y="459"/>
      <point x="1421" y="722"/>
      <point x="1430" y="854" type="curve" smooth="yes"/>
      <point x="1435" y="918"/>
      <point x="1371" y="961"/>
      <point x="1311" y="961" type="curve" smooth="yes"/>
      <point x="1262" y="961"/>
      <point x="1203" y="953"/>
      <point x="1188" y="899" type="curve"/>
      <point x="1177" y="766"/>
      <point x="1167" y="636"/>
      <point x="1096" y="514" type="curve"/>
      <point x="805" y="807" type="line"/>
      <point x="960" y="913"/>
      <point x="1046" y="1044"/>
      <point x="1046" y="1207" type="curve" smooth="yes"/>
      <point x="1046" y="1396"/>
      <point x="849" y="1496"/>
      <point x="655" y="1496" type="curve" smooth="yes"/>
      <point x="460" y="1496"/>
      <point x="227" y="1390"/>
      <point x="227" y="1196" type="curve" smooth="yes"/>
      <point x="227" y="1052"/>
      <point x="295" y="960"/>
      <point x="405" y="855" type="curve"/>
      <point x="202" y="743"/>
      <point x="64" y="630"/>
      <point x="64" y="396" type="curve" smooth="yes"/>
      <point x="64" y="118"/>
      <point x="306" y="-25"/>
    </contour>
    <contour>
      <point x="649" y="215" type="curve" smooth="yes"/>
      <point x="513" y="215"/>
      <point x="371" y="274"/>
      <point x="371" y="423" type="curve" smooth="yes"/>
      <point x="371" y="538"/>
      <point x="467" y="597"/>
      <point x="575" y="649" type="curve"/>
      <point x="901" y="306" type="line"/>
      <point x="881" y="269"/>
      <point x="765" y="215"/>
    </contour>
    <contour>
      <point x="636" y="988" type="curve"/>
      <point x="567" y="1046"/>
      <point x="493" y="1133"/>
      <point x="493" y="1209" type="curve" smooth="yes"/>
      <point x="493" y="1292"/>
      <point x="574" y="1333"/>
      <point x="651" y="1333" type="curve" smooth="yes"/>
      <point x="726" y="1333"/>
      <point x="805" y="1289"/>
      <point x="805" y="1209" type="curve" smooth="yes"/>
      <point x="805" y="1120"/>
      <point x="710" y="1053"/>
    </contour>
  </outline>
</glyph>
<glyph name="asterisk" format="1">
  <advance width="959"/>
  <unicode hex="002A"/>
  <outline>
    <contour>
      <point x="403" y="856" type="curve"/>
      <point x="478" y="986" type="line"/>
      <point x="554" y="856" type="line" smooth="yes"/>
      <point x="608" y="757"/>
      <point x="746" y="816"/>
      <point x="667" y="951" type="curve"/>
      <point x="600" y="1051" type="line"/>
      <point x="777" y="1047" type="line" smooth="yes"/>
      <point x="873" y="1047"/>
      <point x="873" y="1192"/>
      <point x="777" y="1192" type="curve" smooth="yes"/>
      <point x="601" y="1187" type="line"/>
      <point x="680" y="1310" type="line"/>
      <point x="742" y="1413"/>
      <point x="613" y="1490"/>
      <point x="555" y="1382" type="curve" smooth="yes"/>
      <point x="478" y="1248" type="line"/>
      <point x="396" y="1393" type="line" smooth="yes"/>
      <point x="349" y="1481"/>
      <point x="214" y="1418"/>
      <point x="282" y="1299" type="curve"/>
      <point x="356" y="1187" type="line"/>
      <point x="182" y="1192" type="line" smooth="yes"/>
      <point x="85" y="1192"/>
      <point x="86" y="1047"/>
      <point x="182" y="1047" type="curve" smooth="yes"/>
      <point x="358" y="1051" type="line"/>
      <point x="278" y="929" type="line"/>
      <point x="216" y="822"/>
      <point x="345" y="746"/>
    </contour>
  </outline>
</glyph>
<glyph name="one" format="1">
  <advance width="1297"/>
  <unicode hex="0031"/>
  <outline>
    <contour>
      <point x="723" y="1" type="curve" smooth="yes"/>
      <point x="865" y="1"/>
      <point x="903" y="124"/>
      <point x="903" y="264" type="curve" smooth="yes"/>
      <point x="903" y="1188" type="line" smooth="yes"/>
      <point x="903" y="1362"/>
      <point x="850" y="1457"/>
      <point x="732" y="1457" type="curve"/>
      <point x="685" y="1458"/>
      <point x="644" y="1432"/>
      <point x="605" y="1407" type="curve" smooth="yes"/>
      <point x="273" y="1224" type="line"/>
      <point x="217" y="1185"/>
      <point x="192" y="1154"/>
      <point x="192" y="1102" type="curve" smooth="yes"/>
      <point x="192" y="1035"/>
      <point x="243" y="972"/>
      <point x="312" y="972" type="curve" smooth="yes"/>
      <point x="332" y="972"/>
      <point x="353" y="978"/>
      <point x="373" y="989" type="curve" smooth="yes"/>
      <point x="546" y="1090" type="line"/>
      <point x="546" y="292" type="line" smooth="yes"/>
      <point x="546" y="98"/>
      <point x="599" y="1"/>
    </contour>
  </outline>
</glyph>
<glyph name="nine" format="1">
  <advance width="1297"/>
  <unicode hex="0039"/>
  <outline>
    <contour>
      <point x="547" y="-35" type="curve" smooth="yes"/>
      <point x="1050" y="-35"/>
      <point x="1215" y="341"/>
      <point x="1215" y="781" type="curve" smooth="yes"/>
      <point x="1215" y="1192"/>
      <point x="1044" y="1477"/>
      <point x="624" y="1477" type="curve" smooth="yes"/>
      <point x="286" y="1477"/>
      <point x="81" y="1262"/>
      <point x="81" y="971" type="curve" smooth="yes"/>
      <point x="81" y="677"/>
      <point x="319" y="515"/>
      <point x="557" y="515" type="curve" smooth="yes"/>
      <point x="782" y="515"/>
      <point x="847" y="620"/>
      <point x="877" y="657" type="curve"/>
      <point x="877" y="394"/>
      <point x="782" y="230"/>
      <point x="543" y="230" type="curve" smooth="yes"/>
      <point x="467" y="230"/>
      <point x="392" y="249"/>
      <point x="312" y="270" type="curve" smooth="yes"/>
      <point x="181" y="308"/>
      <point x="122" y="80"/>
      <point x="235" y="33" type="curve"/>
      <point x="334" y="-14"/>
      <point x="450" y="-35"/>
    </contour>
    <contour>
      <point x="620" y="722" type="curve" smooth="yes"/>
      <point x="484" y="721"/>
      <point x="408" y="826"/>
      <point x="408" y="982" type="curve" smooth="yes"/>
      <point x="408" y="1147"/>
      <point x="497" y="1239"/>
      <point x="633" y="1239" type="curve" smooth="yes"/>
      <point x="766" y="1239"/>
      <point x="851" y="1140"/>
      <point x="851" y="986" type="curve" smooth="yes"/>
      <point x="851" y="819"/>
      <point x="774" y="722"/>
    </contour>
  </outline>
</glyph>
<glyph name="semicolon" format="1">
  <advance width="648"/>
  <unicode hex="003B"/>
  <outline>
    <component base="comma" xOffset="22" yOffset="88"/>
    <contour>
      <point x="361" y="727" type="curve" smooth="yes"/>
      <point x="459" y="727"/>
      <point x="529" y="804"/>
      <point x="529" y="899" type="curve" smooth="yes"/>
      <point x="529" y="998"/>
      <point x="449" y="1068"/>
      <point x="361" y="1068" type="curve" smooth="yes"/>
      <point x="261" y="1068"/>
      <point x="191" y="987"/>
      <point x="191" y="899" type="curve" smooth="yes"/>
      <point x="191" y="795"/>
      <point x="271" y="727"/>
    </contour>
  </outline>
</glyph>
<glyph name="C" format="1">
  <advance width="1401"/>
  <unicode hex="0043"/>
  <outline>
    <contour>
      <point x="799" y="0" type="move" name="bot"/>
    </contour>
    <contour>
      <point x="825" y="1438" type="move" name="top"/>
    </contour>
    <contour>
      <point x="820" y="-38" type="curve" smooth="yes"/>
      <point x="1021" y="-38"/>
      <point x="1163" y="17"/>
      <point x="1270" y="99" type="curve" smooth="yes"/>
      <point x="1426" y="221"/>
      <point x="1294" y="402"/>
      <point x="1189" y="346" type="curve" smooth="yes"/>
      <point x="1086" y="288"/>
      <point x="948" y="254"/>
      <point x="850" y="254" type="curve" smooth="yes"/>
      <point x="606" y="254"/>
      <point x="484" y="419"/>
      <point x="484" y="722" type="curve" smooth="yes"/>
      <point x="484" y="1136"/>
      <point x="661" y="1195"/>
      <point x="863" y="1195" type="curve" smooth="yes"/>
      <point x="970" y="1195"/>
      <point x="1070" y="1159"/>
      <point x="1139" y="1129" type="curve" smooth="yes"/>
      <point x="1308" y="1056"/>
      <point x="1405" y="1288"/>
      <point x="1252" y="1388" type="curve"/>
      <point x="1194" y="1418"/>
      <point x="1076" y="1487"/>
      <point x="842" y="1487" type="curve" smooth="yes"/>
      <point x="422" y="1487"/>
      <point x="102" y="1201"/>
      <point x="102" y="712" type="curve" smooth="yes"/>
      <point x="102" y="225"/>
      <point x="425" y="-38"/>
    </contour>
  </outline>
</glyph>
<glyph name="H" format="1">
  <advance width="1557"/>
  <unicode hex="0048"/>
  <outline>
    <contour>
      <point x="786" y="1438" type="move" name="top"/>
    </contour>
    <contour>
      <point x="334" y="0" type="curve" smooth="yes"/>
      <point x="437" y="0"/>
      <point x="519" y="94"/>
      <point x="519" y="208" type="curve" smooth="yes"/>
      <point x="519" y="602" type="line"/>
      <point x="1037" y="602" type="line"/>
      <point x="1038" y="208" type="line" smooth="yes"/>
      <point x="1038" y="94"/>
      <point x="1120" y="0"/>
      <point x="1222" y="0" type="curve" smooth="yes"/>
      <point x="1324" y="0"/>
      <point x="1407" y="94"/>
      <point x="1407" y="208" type="curve" smooth="yes"/>
      <point x="1407" y="1248" type="line" smooth="yes"/>
      <point x="1407" y="1362"/>
      <point x="1324" y="1456"/>
      <point x="1222" y="1456" type="curve" smooth="yes"/>
      <point x="1121" y="1456"/>
      <point x="1037" y="1362"/>
      <point x="1037" y="1248" type="curve" smooth="yes"/>
      <point x="1037" y="901" type="line"/>
      <point x="519" y="901" type="line"/>
      <point x="519" y="1248" type="line" smooth="yes"/>
      <point x="519" y="1362"/>
      <point x="437" y="1456"/>
      <point x="334" y="1456" type="curve" smooth="yes"/>
      <point x="232" y="1456"/>
      <point x="150" y="1362"/>
      <point x="150" y="1248" type="curve" smooth="yes"/>
      <point x="150" y="208" type="line" smooth="yes"/>
      <point x="150" y="94"/>
      <point x="232" y="0"/>
    </contour>
  </outline>
</glyph>
<glyph name="M" format="1">
  <advance width="2006"/>
  <unicode hex="004D"/>
  <outline>
    <contour>
      <point x="1022" y="1438" type="move" name="top"/>
    </contour>
    <contour>
      <point x="1003" y="71" type="curve"/>
      <point x="1003" y="494" type="line"/>
      <point x="711" y="1213" type="line"/>
      <point x="572" y="1595"/>
      <point x="150" y="1471"/>
      <point x="150" y="1196" type="curve" smooth="yes"/>
      <point x="151" y="128" type="line" smooth="yes"/>
      <point x="151" y="-78"/>
      <point x="463" y="-83"/>
      <point x="463" y="128" type="curve" smooth="yes"/>
      <point x="463" y="1089" type="line"/>
      <point x="789" y="278" type="line"/>
      <point x="839" y="141"/>
      <point x="885" y="71"/>
    </contour>
    <contour>
      <point x="1003" y="71" type="line"/>
      <point x="1121" y="71"/>
      <point x="1167" y="142"/>
      <point x="1217" y="278" type="curve"/>
      <point x="1544" y="1089" type="line"/>
      <point x="1543" y="128" type="line" smooth="yes"/>
      <point x="1543" y="-83"/>
      <point x="1855" y="-78"/>
      <point x="1855" y="128" type="curve" smooth="yes"/>
      <point x="1856" y="1196" type="line" smooth="yes"/>
      <point x="1856" y="1471"/>
      <point x="1434" y="1595"/>
      <point x="1295" y="1213" type="curve"/>
      <point x="1003" y="494" type="line"/>
    </contour>
  </outline>
</glyph>
<glyph name="Q" format="1">
  <advance width="1633"/>
  <unicode hex="0051"/>
  <outline>
    <component base="O"/>
    <contour>
      <point x="762" y="69" type="line"/>
      <point x="1294" y="-262" type="line" smooth="yes"/>
      <point x="1368" y="-308"/>
      <point x="1439" y="-310"/>
      <point x="1484" y="-237" type="curve" smooth="yes"/>
      <point x="1534" y="-153"/>
      <point x="1499" y="-99"/>
      <point x="1431" y="-54" type="curve" smooth="yes"/>
      <point x="1077" y="186" type="line"/>
    </contour>
  </outline>
</glyph>
<glyph name="S" format="1">
  <advance width="1334"/>
  <unicode hex="0053"/>
  <outline>
    <contour>
      <point x="672" y="0" type="move" name="bot"/>
    </contour>
    <contour>
      <point x="673" y="1438" type="move" name="top"/>
    </contour>
    <contour>
      <point x="672" y="-38" type="curve" smooth="yes"/>
      <point x="1039" y="-38"/>
      <point x="1269" y="139"/>
      <point x="1269" y="421" type="curve" smooth="yes"/>
      <point x="1269" y="682"/>
      <point x="1084" y="779"/>
      <point x="802" y="864" type="curve" smooth="yes"/>
      <point x="752" y="882"/>
      <point x="695" y="876"/>
      <point x="648" y="894" type="curve" smooth="yes"/>
      <point x="531" y="933"/>
      <point x="437" y="976"/>
      <point x="437" y="1070" type="curve" smooth="yes"/>
      <point x="437" y="1175"/>
      <point x="568" y="1219"/>
      <point x="697" y="1219" type="curve" smooth="yes"/>
      <point x="833" y="1219"/>
      <point x="917" y="1198"/>
      <point x="1041" y="1129" type="curve"/>
      <point x="1145" y="1076"/>
      <point x="1261" y="1251"/>
      <point x="1157" y="1354" type="curve"/>
      <point x="1054" y="1450"/>
      <point x="834" y="1487"/>
      <point x="683" y="1487" type="curve" smooth="yes"/>
      <point x="316" y="1487"/>
      <point x="87" y="1311"/>
      <point x="87" y="1042" type="curve" smooth="yes"/>
      <point x="87" y="839"/>
      <point x="186" y="746"/>
      <point x="428" y="655" type="curve"/>
      <point x="760" y="545" type="line" smooth="yes"/>
      <point x="845" y="517"/>
      <point x="914" y="473"/>
      <point x="914" y="389" type="curve" smooth="yes"/>
      <point x="914" y="276"/>
      <point x="799" y="231"/>
      <point x="662" y="231" type="curve" smooth="yes"/>
      <point x="536" y="231"/>
      <point x="419" y="263"/>
      <point x="325" y="303" type="curve"/>
      <point x="165" y="383"/>
      <point x="59" y="152"/>
      <point x="184" y="69" type="curve"/>
      <point x="302" y="-3"/>
      <point x="472" y="-38"/>
    </contour>
  </outline>
</glyph>
<glyph name="U" format="1">
  <advance width="1528"/>
  <unicode hex="0055"/>
  <outline>
    <contour>
      <point x="941" y="9" type="move" name="ogonek"/>
    </contour>
    <contour>
      <point x="770" y="1438" type="move" name="top"/>
    </contour>
    <contour>
      <point x="763" y="-38" type="curve" smooth="yes"/>
      <point x="1127" y="-38"/>
      <point x="1389" y="140"/>
      <point x="1389" y="490" type="curve" smooth="yes"/>
      <point x="1389" y="1246" type="line" smooth="yes"/>
      <point x="1389" y="1360"/>
      <point x="1306" y="1454"/>
      <point x="1204" y="1454" type="curve" smooth="yes"/>
      <point x="1102" y="1454"/>
      <point x="1020" y="1360"/>
      <point x="1020" y="1246" type="curve" smooth="yes"/>
      <point x="1020" y="496" type="line" smooth="yes"/>
      <point x="1020" y="311"/>
      <point x="890" y="231"/>
      <point x="763" y="231" type="curve" smooth="yes"/>
      <point x="637" y="231"/>
      <point x="508" y="311"/>
      <point x="508" y="496" type="curve" smooth="yes"/>
      <point x="508" y="1246" type="line" smooth="yes"/>
      <point x="508" y="1360"/>
      <point x="425" y="1454"/>
      <point x="323" y="1454" type="curve" smooth="yes"/>
      <point x="220" y="1454"/>
      <point x="139" y="1360"/>
      <point x="139" y="1246" type="curve" smooth="yes"/>
      <point x="139" y="490" type="line" smooth="yes"/>
      <point x="139" y="134"/>
      <point x="404" y="-38"/>
    </contour>
  </outline>
</glyph>
<glyph name="X" format="1">
  <advance width="1373"/>
  <unicode hex="0058"/>
  <outline>
    <contour>
      <point x="367" y="97" type="curve"/>
      <point x="724" y="552" type="line"/>
      <point x="883" y="729" type="line"/>
      <point x="1262" y="1197" type="line"/>
      <point x="1377" y="1348"/>
      <point x="1150" y="1585"/>
      <point x="988" y="1342" type="curve"/>
      <point x="674" y="927" type="line"/>
      <point x="514" y="762" type="line"/>
      <point x="130" y="309" type="line"/>
      <point x="-42" y="82"/>
      <point x="221" y="-107"/>
    </contour>
    <contour>
      <point x="982" y="88" type="line"/>
      <point x="1145" y="-149"/>
      <point x="1400" y="79"/>
      <point x="1266" y="259" type="curve" smooth="yes"/>
      <point x="419" y="1366" type="line"/>
      <point x="269" y="1582"/>
      <point x="0" y="1389"/>
      <point x="148" y="1172" type="curve"/>
    </contour>
  </outline>
</glyph>
<glyph name="Y" format="1">
  <advance width="1327"/>
  <unicode hex="0059"/>
  <outline>
    <contour>
      <point x="679" y="1438" type="move" name="top"/>
    </contour>
    <contour>
      <point x="474" y="195" type="line" smooth="yes"/>
      <point x="474" y="-68"/>
      <point x="845" y="-68"/>
      <point x="845" y="195" type="curve" smooth="yes"/>
      <point x="845" y="556" type="line"/>
      <point x="1229" y="1182" type="line"/>
      <point x="1345" y="1389"/>
      <point x="1076" y="1553"/>
      <point x="958" y="1325" type="curve"/>
      <point x="677" y="850" type="line"/>
      <point x="409" y="1315" type="line"/>
      <point x="271" y="1587"/>
      <point x="-32" y="1401"/>
      <point x="106" y="1151" type="curve"/>
      <point x="474" y="551" type="line"/>
    </contour>
  </outline>
</glyph>
<glyph name="a" format="1">
  <advance width="1117"/>
  <unicode hex="0061"/>
  <outline>
    <contour>
      <point x="861" y="31" type="move" name="ogonek"/>
    </contour>
    <contour>
      <point x="574" y="1001" type="move" name="top"/>
    </contour>
    <contour>
      <point x="396" y="-12" type="curve" smooth="yes"/>
      <point x="502" y="-13"/>
      <point x="658" y="6"/>
      <point x="718" y="183" type="curve"/>
      <point x="718" y="166" type="line" smooth="yes"/>
      <point x="718" y="-58"/>
      <point x="999" y="-58"/>
      <point x="999" y="163" type="curve" smooth="yes"/>
      <point x="999" y="590" type="line" smooth="yes"/>
      <point x="999" y="917"/>
      <point x="818" y="1025"/>
      <point x="563" y="1025" type="curve" smooth="yes"/>
      <point x="430" y="1025"/>
      <point x="270" y="989"/>
      <point x="181" y="946" type="curve" smooth="yes"/>
      <point x="67" y="889"/>
      <point x="143" y="695"/>
      <point x="255" y="742" type="curve" smooth="yes"/>
      <point x="321" y="770"/>
      <point x="427" y="814"/>
      <point x="544" y="814" type="curve" smooth="yes"/>
      <point x="645" y="814"/>
      <point x="707" y="767"/>
      <point x="707" y="660" type="curve" smooth="yes"/>
      <point x="707" y="597" type="line"/>
      <point x="242" y="597"/>
      <point x="69" y="526"/>
      <point x="69" y="274" type="curve" smooth="yes"/>
      <point x="69" y="106"/>
      <point x="207" y="-10"/>
    </contour>
    <contour>
      <point x="459" y="168" type="curve" smooth="yes"/>
      <point x="377" y="175"/>
      <point x="335" y="230"/>
      <point x="333" y="299" type="curve" smooth="yes"/>
      <point x="329" y="445"/>
      <point x="467" y="455"/>
      <point x="706" y="455" type="curve"/>
      <point x="706" y="415" type="line" smooth="yes"/>
      <point x="706" y="262"/>
      <point x="571" y="158"/>
    </contour>
  </outline>
</glyph>
<glyph name="e" format="1">
  <advance width="1152"/>
  <unicode hex="0065"/>
  <outline>
    <contour>
      <point x="804" y="33" type="move" name="ogonek"/>
    </contour>
    <contour>
      <point x="611" y="1001" type="move" name="top"/>
    </contour>
    <contour>
      <point x="620" y="-12" type="curve" smooth="yes"/>
      <point x="842" y="-12"/>
      <point x="957" y="76"/>
      <point x="1029" y="140" type="curve" smooth="yes"/>
      <point x="1111" y="219"/>
      <point x="983" y="372"/>
      <point x="908" y="306" type="curve" smooth="yes"/>
      <point x="848" y="255"/>
      <point x="755" y="211"/>
      <point x="657" y="211" type="curve" smooth="yes"/>
      <point x="481" y="211"/>
      <point x="402" y="304"/>
      <point x="395" y="455" type="curve"/>
      <point x="975" y="455" type="line" smooth="yes"/>
      <point x="1038" y="455"/>
      <point x="1076" y="480"/>
      <point x="1076" y="537" type="curve" smooth="yes"/>
      <point x="1073" y="799"/>
      <point x="946" y="1025"/>
      <point x="606" y="1025" type="curve" smooth="yes"/>
      <point x="292" y="1025"/>
      <point x="80" y="801"/>
      <point x="80" y="508" type="curve" smooth="yes"/>
      <point x="80" y="160"/>
      <point x="312" y="-12"/>
    </contour>
    <contour>
      <point x="397" y="600" type="line"/>
      <point x="405" y="736"/>
      <point x="476" y="841"/>
      <point x="610" y="841" type="curve" smooth="yes"/>
      <point x="758" y="841"/>
      <point x="802" y="741"/>
      <point x="810" y="600" type="curve"/>
    </contour>
  </outline>
</glyph>
<glyph name="l" format="1">
  <advance width="574"/>
  <unicode hex="006C"/>
  <outline>
    <contour>
      <point x="290" y="0" type="move" name="bot"/>
    </contour>
    <contour>
      <point x="302" y="992" type="move" name="caron.alt"/>
    </contour>
    <contour>
      <point x="288" y="1452" type="move" name="top"/>
    </contour>
    <contour>
      <point x="290" y="0" type="curve" smooth="yes"/>
      <point x="408" y="0"/>
      <point x="455" y="76"/>
      <point x="455" y="213" type="curve" smooth="yes"/>
      <point x="455" y="1241" type="line" smooth="yes"/>
      <point x="455" y="1378"/>
      <point x="408" y="1454"/>
      <point x="290" y="1454" type="curve" smooth="yes"/>
      <point x="179" y="1454"/>
      <point x="138" y="1378"/>
      <point x="138" y="1241" type="curve" smooth="yes"/>
      <point x="138" y="213" type="line" smooth="yes"/>
      <point x="138" y="76"/>
      <point x="179" y="0"/>
    </contour>
  </outline>
</glyph>
<glyph name="m" format="1">
  <advance width="1918"/>
  <unicode hex="006D"/>
  <outline>
    <contour>
      <point x="949" y="992" type="move" name="top"/>
    </contour>
    <contour>
      <point x="274" y="0" type="curve" smooth="yes"/>
      <point x="391" y="0"/>
      <point x="439" y="77"/>
      <point x="439" y="214" type="curve" smooth="yes"/>
      <point x="439" y="620" type="line" smooth="yes"/>
      <point x="439" y="752"/>
      <point x="526" y="819"/>
      <point x="642" y="819" type="curve" smooth="yes"/>
      <point x="739" y="819"/>
      <point x="800" y="747"/>
      <point x="800" y="613" type="curve" smooth="yes"/>
      <point x="800" y="214" type="line" smooth="yes"/>
      <point x="800" y="76"/>
      <point x="846" y="0"/>
      <point x="957" y="0" type="curve" smooth="yes"/>
      <point x="1074" y="0"/>
      <point x="1118" y="76"/>
      <point x="1118" y="214" type="curve" smooth="yes"/>
      <point x="1118" y="598" type="line" smooth="yes"/>
      <point x="1118" y="745"/>
      <point x="1212" y="819"/>
      <point x="1322" y="819" type="curve" smooth="yes"/>
      <point x="1411" y="819"/>
      <point x="1480" y="750"/>
      <point x="1480" y="635" type="curve" smooth="yes"/>
      <point x="1480" y="214" type="line" smooth="yes"/>
      <point x="1480" y="77"/>
      <point x="1528" y="0"/>
      <point x="1639" y="0" type="curve" smooth="yes"/>
      <point x="1756" y="0"/>
      <point x="1798" y="77"/>
      <point x="1798" y="214" type="curve" smooth="yes"/>
      <point x="1798" y="653" type="line" smooth="yes"/>
      <point x="1798" y="902"/>
      <point x="1655" y="1025"/>
      <point x="1464" y="1025" type="curve" smooth="yes"/>
      <point x="1320" y="1025"/>
      <point x="1176" y="994"/>
      <point x="1091" y="810" type="curve"/>
      <point x="1037" y="993"/>
      <point x="916" y="1025"/>
      <point x="776" y="1025" type="curve" smooth="yes"/>
      <point x="619" y="1025"/>
      <point x="488" y="961"/>
      <point x="439" y="822" type="curve"/>
      <point x="439" y="842" type="line" smooth="yes"/>
      <point x="439" y="949"/>
      <point x="382" y="1007"/>
      <point x="278" y="1007" type="curve" smooth="yes"/>
      <point x="167" y="1007"/>
      <point x="121" y="940"/>
      <point x="121" y="802" type="curve" smooth="yes"/>
      <point x="121" y="214" type="line" smooth="yes"/>
      <point x="121" y="77"/>
      <point x="163" y="0"/>
    </contour>
  </outline>
</glyph>
<glyph name="o" format="1">
  <advance width="1262"/>
  <unicode hex="006F"/>
  <outline>
    <contour>
      <point x="630" y="991" type="move" name="top"/>
    </contour>
    <contour>
      <point x="630" y="196" type="curve" smooth="yes"/>
      <point x="482" y="196"/>
      <point x="407" y="319"/>
      <point x="407" y="505" type="curve" smooth="yes"/>
      <point x="407" y="704"/>
      <point x="482" y="819"/>
      <point x="630" y="819" type="curve" smooth="yes"/>
      <point x="779" y="819"/>
      <point x="854" y="704"/>
      <point x="854" y="505" type="curve" smooth="yes"/>
      <point x="854" y="316"/>
      <point x="779" y="196"/>
    </contour>
    <contour>
      <point x="630" y="-12" type="curve" smooth="yes"/>
      <point x="1002" y="-12"/>
      <point x="1182" y="220"/>
      <point x="1182" y="505" type="curve" smooth="yes"/>
      <point x="1182" y="813"/>
      <point x="989" y="1027"/>
      <point x="630" y="1027" type="curve" smooth="yes"/>
      <point x="256" y="1027"/>
      <point x="80" y="792"/>
      <point x="80" y="505" type="curve" smooth="yes"/>
      <point x="80" y="204"/>
      <point x="264" y="-12"/>
    </contour>
  </outline>
</glyph>
<glyph name="q" format="1">
  <advance width="1279"/>
  <unicode hex="0071"/>
  <outline>
    <contour>
      <point x="1010" y="-369" type="curve" smooth="yes"/>
      <point x="1121" y="-369"/>
      <point x="1162" y="-292"/>
      <point x="1162" y="-154" type="curve" smooth="yes"/>
      <point x="1162" y="780" type="line" smooth="yes"/>
      <point x="1162" y="918"/>
      <point x="1112" y="1007"/>
      <point x="1001" y="1007" type="curve" smooth="yes"/>
      <point x="898" y="1007"/>
      <point x="846" y="938"/>
      <point x="846" y="850" type="curve" smooth="yes"/>
      <point x="846" y="838" type="line"/>
      <point x="784" y="971"/>
      <point x="659" y="1027"/>
      <point x="514" y="1027" type="curve" smooth="yes"/>
      <point x="268" y="1027"/>
      <point x="80" y="852"/>
      <point x="80" y="501" type="curve" smooth="yes"/>
      <point x="80" y="152"/>
      <point x="284" y="-12"/>
      <point x="527" y="-12" type="curve" smooth="yes"/>
      <point x="676" y="-12"/>
      <point x="794" y="52"/>
      <point x="845" y="159" type="curve"/>
      <point x="845" y="-154" type="line" smooth="yes"/>
      <point x="845" y="-292"/>
      <point x="892" y="-369"/>
    </contour>
    <contour>
      <point x="612" y="194" type="curve" smooth="yes"/>
      <point x="456" y="194"/>
      <point x="384" y="324"/>
      <point x="384" y="512" type="curve" smooth="yes"/>
      <point x="384" y="658"/>
      <point x="440" y="829"/>
      <point x="607" y="829" type="curve" smooth="yes"/>
      <point x="778" y="829"/>
      <point x="844" y="701"/>
      <point x="844" y="508" type="curve" smooth="yes"/>
      <point x="844" y="296"/>
      <point x="756" y="194"/>
    </contour>
  </outline>
</glyph>
<glyph name="v" format="1">
  <advance width="1083"/>
  <unicode hex="0076"/>
  <outline>
    <contour>
      <point x="542" y="-14" type="curve"/>
      <point x="542" y="326" type="line"/>
      <point x="322" y="893" type="line"/>
      <point x="244" y="1117"/>
      <point x="-32" y="1012"/>
      <point x="50" y="792" type="curve"/>
      <point x="275" y="272" type="line"/>
      <point x="363" y="35"/>
      <point x="395" y="-14"/>
    </contour>
    <contour>
      <point x="542" y="-14" type="line"/>
      <point x="689" y="-14"/>
      <point x="719" y="37"/>
      <point x="808" y="272" type="curve"/>
      <point x="1034" y="792" type="line"/>
      <point x="1117" y="1012"/>
      <point x="839" y="1117"/>
      <point x="761" y="893" type="curve"/>
      <point x="542" y="326" type="line"/>
    </contour>
  </outline>
</glyph>
<glyph name="w" format="1">
  <advance width="1747"/>
  <unicode hex="0077"/>
  <outline>
    <contour>
      <point x="886" y="1013" type="move" name="top"/>
    </contour>
    <contour>
      <point x="483" y="0" type="curve" smooth="yes"/>
      <point x="620" y="0"/>
      <point x="665" y="43"/>
      <point x="733" y="290" type="curve"/>
      <point x="882" y="741" type="line"/>
      <point x="882" y="1012" type="line"/>
      <point x="742" y="1012"/>
      <point x="719" y="920"/>
      <point x="682" y="789" type="curve"/>
      <point x="526" y="313" type="line"/>
      <point x="365" y="877" type="line"/>
      <point x="310" y="1096"/>
      <point x="40" y="1017"/>
      <point x="98" y="812" type="curve"/>
      <point x="267" y="284" type="line"/>
      <point x="321" y="85"/>
      <point x="372" y="0"/>
    </contour>
    <contour>
      <point x="1280" y="0" type="curve" smooth="yes"/>
      <point x="1391" y="0"/>
      <point x="1442" y="85"/>
      <point x="1496" y="284" type="curve"/>
      <point x="1665" y="812" type="line"/>
      <point x="1723" y="1017"/>
      <point x="1456" y="1095"/>
      <point x="1398" y="877" type="curve"/>
      <point x="1237" y="313" type="line"/>
      <point x="1081" y="789" type="line"/>
      <point x="1044" y="920"/>
      <point x="1021" y="1012"/>
      <point x="882" y="1012" type="curve"/>
      <point x="882" y="741" type="line"/>
      <point x="1030" y="290" type="line"/>
      <point x="1098" y="43"/>
      <point x="1143" y="0"/>
    </contour>
  </outline>
</glyph>
<glyph name="asciitilde" format="1">
  <advance width="1288"/>
  <unicode hex="007E"/>
  <outline>
    <contour>
      <point x="794" y="1128" type="curve" smooth="yes"/>
      <point x="940" y="1128"/>
      <point x="1001" y="1262"/>
      <point x="1031" y="1328" type="curve" smooth="yes"/>
      <point x="1063" y="1407"/>
      <point x="945" y="1458"/>
      <point x="910" y="1410" type="curve"/>
      <point x="874" y="1351"/>
      <point x="843" y="1315"/>
      <point x="786" y="1315" type="curve" smooth="yes"/>
      <point x="717" y="1315"/>
      <point x="615" y="1425"/>
      <point x="488" y="1425" type="curve" smooth="yes"/>
      <point x="382" y="1425"/>
      <point x="322" y="1339"/>
      <point x="264" y="1230" type="curve" smooth="yes"/>
      <point x="232" y="1171"/>
      <point x="344" y="1082"/>
      <point x="391" y="1148" type="curve" smooth="yes"/>
      <point x="428" y="1202"/>
      <point x="455" y="1239"/>
      <point x="509" y="1239" type="curve"/>
      <point x="584" y="1233"/>
      <point x="677" y="1128"/>
    </contour>
  </outline>
</glyph>
<glyph name="section" format="1">
  <advance width="1298"/>
  <unicode hex="00A7"/>
  <outline>
    <contour>
      <point x="603" y="-35" type="curve" smooth="yes"/>
      <point x="892" y="-35"/>
      <point x="1056" y="83"/>
      <point x="1056" y="270" type="curve" smooth="yes"/>
      <point x="1056" y="386"/>
      <point x="980" y="463"/>
      <point x="869" y="508" type="curve"/>
      <point x="1010" y="561"/>
      <point x="1094" y="661"/>
      <point x="1094" y="790" type="curve" smooth="yes"/>
      <point x="1094" y="1107"/>
      <point x="574" y="1091"/>
      <point x="574" y="1222" type="curve" smooth="yes"/>
      <point x="574" y="1292"/>
      <point x="659" y="1313"/>
      <point x="731" y="1313" type="curve" smooth="yes"/>
      <point x="787" y="1313"/>
      <point x="901" y="1286"/>
      <point x="948" y="1289" type="curve" smooth="yes"/>
      <point x="1003" y="1292"/>
      <point x="1032" y="1333"/>
      <point x="1032" y="1382" type="curve" smooth="yes"/>
      <point x="1032" y="1422"/>
      <point x="1008" y="1465"/>
      <point x="952" y="1478" type="curve" smooth="yes"/>
      <point x="853" y="1499"/>
      <point x="788" y="1514"/>
      <point x="684" y="1514" type="curve" smooth="yes"/>
      <point x="389" y="1514"/>
      <point x="240" y="1414"/>
      <point x="240" y="1218" type="curve" smooth="yes"/>
      <point x="240" y="1095"/>
      <point x="401" y="975"/>
      <point x="423" y="982" type="curve"/>
      <point x="288" y="946"/>
      <point x="196" y="826"/>
      <point x="196" y="720" type="curve" smooth="yes"/>
      <point x="196" y="393"/>
      <point x="738" y="431"/>
      <point x="738" y="289" type="curve" smooth="yes"/>
      <point x="738" y="203"/>
      <point x="663" y="166"/>
      <point x="544" y="166" type="curve" smooth="yes"/>
      <point x="469" y="166"/>
      <point x="368" y="206"/>
      <point x="300" y="202" type="curve" smooth="yes"/>
      <point x="245" y="199"/>
      <point x="204" y="150"/>
      <point x="204" y="100" type="curve" smooth="yes"/>
      <point x="204" y="59"/>
      <point x="226" y="27"/>
      <point x="281" y="10" type="curve" smooth="yes"/>
      <point x="337" y="-5"/>
      <point x="484" y="-35"/>
    </contour>
    <contour>
      <point x="674" y="605" type="curve"/>
      <point x="554" y="659"/>
      <point x="477" y="682"/>
      <point x="477" y="758" type="curve" smooth="yes"/>
      <point x="477" y="817"/>
      <point x="528" y="859"/>
      <point x="609" y="908" type="curve"/>
      <point x="726" y="863"/>
      <point x="823" y="831"/>
      <point x="823" y="757" type="curve" smooth="yes"/>
      <point x="823" y="696"/>
      <point x="757" y="650"/>
    </contour>
  </outline>
</glyph>
<glyph name="ordfeminine" format="1">
  <advance width="1122"/>
  <unicode hex="00AA"/>
  <outline>
    <contour>
      <point x="366" y="743" type="curve" smooth="yes"/>
      <point x="465" y="743"/>
      <point x="577" y="781"/>
      <point x="617" y="892" type="curve"/>
      <point x="618" y="881" type="line"/>
      <point x="618" y="796"/>
      <point x="662" y="760"/>
      <point x="719" y="760" type="curve" smooth="yes"/>
      <point x="810" y="760"/>
      <point x="819" y="842"/>
      <point x="819" y="923" type="curve" smooth="yes"/>
      <point x="820" y="1192" type="line" smooth="yes"/>
      <point x="820" y="1435"/>
      <point x="689" y="1514"/>
      <point x="501" y="1514" type="curve" smooth="yes"/>
      <point x="341" y="1514"/>
      <point x="222" y="1481"/>
      <point x="193" y="1389" type="curve" smooth="yes"/>
      <point x="190" y="1382"/>
      <point x="188" y="1375"/>
      <point x="188" y="1369" type="curve" smooth="yes"/>
      <point x="188" y="1335"/>
      <point x="214" y="1308"/>
      <point x="249" y="1308" type="curve" smooth="yes"/>
      <point x="253" y="1308"/>
      <point x="257" y="1309"/>
      <point x="262" y="1310" type="curve" smooth="yes"/>
      <point x="329" y="1327"/>
      <point x="390" y="1354"/>
      <point x="487" y="1354" type="curve" smooth="yes"/>
      <point x="563" y="1354"/>
      <point x="611" y="1325"/>
      <point x="611" y="1245" type="curve" smooth="yes"/>
      <point x="611" y="1206" type="line"/>
      <point x="590" y="1207"/>
      <point x="562" y="1207"/>
      <point x="543" y="1207" type="curve" smooth="yes"/>
      <point x="269" y="1202"/>
      <point x="125" y="1129"/>
      <point x="125" y="958" type="curve" smooth="yes"/>
      <point x="125" y="819"/>
      <point x="233" y="743"/>
    </contour>
    <contour>
      <point x="451" y="867" type="curve"/>
      <point x="379" y="870"/>
      <point x="328" y="907"/>
      <point x="328" y="977" type="curve" smooth="yes"/>
      <point x="328" y="1090"/>
      <point x="472" y="1098"/>
      <point x="611" y="1098" type="curve"/>
      <point x="611" y="1052" type="line"/>
      <point x="608" y="936"/>
      <point x="544" y="868"/>
    </contour>
  </outline>
</glyph>
<glyph name="uni00AD" format="1">
  <advance width="792"/>
  <unicode hex="00AD"/>
  <outline>
    <contour>
      <point x="148" y="423" type="curve" smooth="yes"/>
      <point x="622" y="423" type="line" smooth="yes"/>
      <point x="704" y="423"/>
      <point x="756" y="467"/>
      <point x="756" y="537" type="curve" smooth="yes"/>
      <point x="756" y="608"/>
      <point x="704" y="652"/>
      <point x="622" y="652" type="curve" smooth="yes"/>
      <point x="170" y="652" type="line" smooth="yes"/>
      <point x="88" y="652"/>
      <point x="36" y="608"/>
      <point x="36" y="537" type="curve" smooth="yes"/>
      <point x="36" y="467"/>
      <point x="79" y="423"/>
    </contour>
  </outline>
</glyph>
<glyph name="macron" format="1">
  <advance width="569"/>
  <unicode hex="00AF"/>
  <outline>
    <contour>
      <point x="293" y="1301" type="move" name="_mid"/>
    </contour>
    <contour>
      <point x="287" y="992" type="move" name="_top"/>
    </contour>
    <contour>
      <point x="-14" y="1172" type="curve" smooth="yes"/>
      <point x="575" y="1172" type="line" smooth="yes"/>
      <point x="642" y="1172"/>
      <point x="674" y="1209"/>
      <point x="674" y="1268" type="curve" smooth="yes"/>
      <point x="674" y="1341"/>
      <point x="626" y="1363"/>
      <point x="575" y="1363" type="curve" smooth="yes"/>
      <point x="-2" y="1363" type="line" smooth="yes"/>
      <point x="-68" y="1363"/>
      <point x="-103" y="1324"/>
      <point x="-103" y="1268" type="curve" smooth="yes"/>
      <point x="-103" y="1209"/>
      <point x="-67" y="1172"/>
    </contour>
  </outline>
</glyph>
<glyph name="paragraph" format="1">
  <advance width="1299"/>
  <unicode hex="00B6"/>
  <outline>
    <contour>
      <point x="615" y="-126" type="curve" smooth="yes"/>
      <point x="705" y="-126"/>
      <point x="720" y="-26"/>
      <point x="720" y="63" type="curve" smooth="yes"/>
      <point x="720" y="1287" type="line"/>
      <point x="904" y="1287" type="line"/>
      <point x="904" y="63" type="line" smooth="yes"/>
      <point x="904" y="-39"/>
      <point x="922" y="-126"/>
      <point x="1009" y="-126" type="curve" smooth="yes"/>
      <point x="1084" y="-126"/>
      <point x="1113" y="-68"/>
      <point x="1113" y="21" type="curve" smooth="yes"/>
      <point x="1115" y="1263" type="line" smooth="yes"/>
      <point x="1115" y="1366"/>
      <point x="1100" y="1454"/>
      <point x="944" y="1454" type="curve" smooth="yes"/>
      <point x="489" y="1451" type="line" smooth="yes"/>
      <point x="233" y="1450"/>
      <point x="97" y="1277"/>
      <point x="97" y="1095" type="curve" smooth="yes"/>
      <point x="97" y="900"/>
      <point x="265" y="738"/>
      <point x="510" y="738" type="curve"/>
      <point x="510" y="63" type="line" smooth="yes"/>
      <point x="510" y="-39"/>
      <point x="528" y="-126"/>
    </contour>
  </outline>
</glyph>
<glyph name="uni00B9" format="1">
  <advance width="714"/>
  <unicode hex="00B9"/>
  <outline>
    <contour>
      <point x="422" y="632" type="curve" smooth="yes"/>
      <point x="498" y="632"/>
      <point x="511" y="699"/>
      <point x="511" y="772" type="curve" smooth="yes"/>
      <point x="511" y="1307" type="line" smooth="yes"/>
      <point x="511" y="1395"/>
      <point x="488" y="1445"/>
      <point x="431" y="1445" type="curve" smooth="yes"/>
      <point x="403" y="1445"/>
      <point x="382" y="1430"/>
      <point x="362" y="1416" type="curve" smooth="yes"/>
      <point x="180" y="1314" type="line" smooth="yes"/>
      <point x="147" y="1294"/>
      <point x="134" y="1274"/>
      <point x="134" y="1245" type="curve" smooth="yes"/>
      <point x="134" y="1208"/>
      <point x="160" y="1172"/>
      <point x="200" y="1172" type="curve" smooth="yes"/>
      <point x="212" y="1172"/>
      <point x="224" y="1175"/>
      <point x="235" y="1183" type="curve" smooth="yes"/>
      <point x="335" y="1240" type="line"/>
      <point x="335" y="790" type="line" smooth="yes"/>
      <point x="335" y="689"/>
      <point x="359" y="632"/>
    </contour>
  </outline>
</glyph>
<glyph name="threequarters" format="1">
  <advance width="1854"/>
  <unicode hex="00BE"/>
  <outline>
    <contour>
      <point x="348" y="598" type="curve" smooth="yes"/>
      <point x="537" y="598"/>
      <point x="646" y="701"/>
      <point x="646" y="830" type="curve" smooth="yes"/>
      <point x="646" y="943"/>
      <point x="581" y="1022"/>
      <point x="477" y="1045" type="curve"/>
      <point x="563" y="1058"/>
      <point x="625" y="1135"/>
      <point x="625" y="1229" type="curve" smooth="yes"/>
      <point x="625" y="1373"/>
      <point x="510" y="1469"/>
      <point x="348" y="1469" type="curve" smooth="yes"/>
      <point x="288" y="1469"/>
      <point x="89" y="1443"/>
      <point x="89" y="1360" type="curve" smooth="yes"/>
      <point x="89" y="1322"/>
      <point x="116" y="1293"/>
      <point x="156" y="1293" type="curve" smooth="yes"/>
      <point x="174" y="1293"/>
      <point x="271" y="1320"/>
      <point x="336" y="1320" type="curve" smooth="yes"/>
      <point x="408" y="1320"/>
      <point x="469" y="1287"/>
      <point x="469" y="1223" type="curve" smooth="yes"/>
      <point x="469" y="1149"/>
      <point x="407" y="1105"/>
      <point x="326" y="1106" type="curve" smooth="yes"/>
      <point x="273" y="1106" type="line" smooth="yes"/>
      <point x="238" y="1106"/>
      <point x="217" y="1082"/>
      <point x="217" y="1038" type="curve" smooth="yes"/>
      <point x="217" y="1002"/>
      <point x="233" y="972"/>
      <point x="276" y="972" type="curve" smooth="yes"/>
      <point x="325" y="972" type="line" smooth="yes"/>
      <point x="426" y="972"/>
      <point x="481" y="908"/>
      <point x="481" y="845" type="curve" smooth="yes"/>
      <point x="481" y="771"/>
      <point x="421" y="744"/>
      <point x="344" y="744" type="curve" smooth="yes"/>
      <point x="271" y="744"/>
      <point x="195" y="779"/>
      <point x="163" y="779" type="curve" smooth="yes"/>
      <point x="111" y="779"/>
      <point x="91" y="740"/>
      <point x="91" y="707" type="curve" smooth="yes"/>
      <point x="91" y="637"/>
      <point x="253" y="598"/>
    </contour>
    <contour>
      <point x="1520" y="0" type="curve" smooth="yes"/>
      <point x="1580" y="0"/>
      <point x="1600" y="61"/>
      <point x="1600" y="128" type="curve" smooth="yes"/>
      <point x="1600" y="173" type="line"/>
      <point x="1640" y="173" type="line" smooth="yes"/>
      <point x="1689" y="173"/>
      <point x="1716" y="192"/>
      <point x="1716" y="234" type="curve" smooth="yes"/>
      <point x="1716" y="277"/>
      <point x="1685" y="293"/>
      <point x="1629" y="293" type="curve" smooth="yes"/>
      <point x="1600" y="293" type="line"/>
      <point x="1600" y="632" type="line" smooth="yes"/>
      <point x="1600" y="766"/>
      <point x="1571" y="834"/>
      <point x="1481" y="834" type="curve" smooth="yes"/>
      <point x="1408" y="834"/>
      <point x="1360" y="802"/>
      <point x="1318" y="710" type="curve"/>
      <point x="1057" y="286" type="line" smooth="yes"/>
      <point x="1048" y="271"/>
      <point x="1043" y="255"/>
      <point x="1043" y="240" type="curve" smooth="yes"/>
      <point x="1043" y="181"/>
      <point x="1096" y="173"/>
      <point x="1157" y="173" type="curve" smooth="yes"/>
      <point x="1439" y="173" type="line"/>
      <point x="1439" y="144" type="line" smooth="yes"/>
      <point x="1439" y="59"/>
      <point x="1459" y="0"/>
    </contour>
    <contour>
      <point x="696" y="-62" type="curve" smooth="yes"/>
      <point x="731" y="-62"/>
      <point x="766" y="-43"/>
      <point x="782" y="6" type="curve" smooth="yes"/>
      <point x="1215" y="1248" type="line"/>
      <point x="1226" y="1285"/>
      <point x="1245" y="1339"/>
      <point x="1245" y="1376" type="curve" smooth="yes"/>
      <point x="1245" y="1439"/>
      <point x="1204" y="1475"/>
      <point x="1149" y="1475" type="curve" smooth="yes"/>
      <point x="1093" y="1475"/>
      <point x="1064" y="1409"/>
      <point x="1044" y="1344" type="curve" smooth="yes"/>
      <point x="622" y="134" type="line"/>
      <point x="612" y="101"/>
      <point x="600" y="65"/>
      <point x="600" y="32" type="curve" smooth="yes"/>
      <point x="600" y="-23"/>
      <point x="646" y="-62"/>
    </contour>
    <contour>
      <point x="1209" y="287" type="line"/>
      <point x="1439" y="681" type="line"/>
      <point x="1439" y="287" type="line"/>
    </contour>
  </outline>
</glyph>
<glyph name="Oslash" format="1">
  <advance width="1612"/>
  <unicode hex="00D8"/>
  <outline>
    <component base="O"/>
    <contour>
      <point x="316" y="-231" type="curve" smooth="yes"/>
      <point x="358" y="-231"/>
      <point x="380" y="-192"/>
      <point x="408" y="-145" type="curve"/>
      <point x="1413" y="1464" type="line" smooth="yes"/>
      <point x="1430" y="1491"/>
      <point x="1443" y="1523"/>
      <point x="1443" y="1553" type="curve" smooth="yes"/>
      <point x="1443" y="1605"/>
      <point x="1398" y="1643"/>
      <point x="1350" y="1643" type="curve" smooth="yes"/>
      <point x="1317" y="1643"/>
      <point x="1289" y="1627"/>
      <point x="1269" y="1593" type="curve" smooth="yes"/>
      <point x="252" y="-51" type="line" smooth="yes"/>
      <point x="235" y="-79"/>
      <point x="223" y="-112"/>
      <point x="223" y="-141" type="curve" smooth="yes"/>
      <point x="223" y="-198"/>
      <point x="267" y="-231"/>
    </contour>
  </outline>
</glyph>
<glyph name="Hbar" format="1">
  <advance width="1557"/>
  <unicode hex="0126"/>
  <outline>
    <component base="H"/>
    <contour>
      <point x="101" y="1003" type="curve" smooth="yes"/>
      <point x="1455" y="1003" type="line" smooth="yes"/>
      <point x="1504" y="1003"/>
      <point x="1530" y="1038"/>
      <point x="1530" y="1075" type="curve" smooth="yes"/>
      <point x="1530" y="1113"/>
      <point x="1506" y="1148"/>
      <point x="1455" y="1148" type="curve" smooth="yes"/>
      <point x="101" y="1148" type="line" smooth="yes"/>
      <point x="52" y="1148"/>
      <point x="27" y="1113"/>
      <point x="27" y="1075" type="curve" smooth="yes"/>
      <point x="27" y="1038"/>
      <point x="52" y="1003"/>
    </contour>
  </outline>
</glyph>
<glyph name="Lslash" format="1">
  <advance width="1197"/>
  <unicode hex="0141"/>
  <outline>
    <contour>
      <point x="335" y="0" type="curve" smooth="yes"/>
      <point x="1021" y="0" type="line" smooth="yes"/>
      <point x="1094" y="0"/>
      <point x="1153" y="61"/>
      <point x="1153" y="139" type="curve" smooth="yes"/>
      <point x="1153" y="216"/>
      <point x="1094" y="277"/>
      <point x="1021" y="277" type="curve" smooth="yes"/>
      <point x="520" y="277" type="line"/>
      <point x="519.546" y="717.436" type="line"/>
      <point x="724" y="849" type="line" smooth="yes"/>
      <point x="751.992" y="867.013"/>
      <point x="764" y="893"/>
      <point x="764" y="922" type="curve" smooth="yes"/>
      <point x="764" y="978"/>
      <point x="719" y="1040"/>
      <point x="665" y="1040" type="curve" smooth="yes"/>
      <point x="650" y="1040"/>
      <point x="635.857" y="1036.22"/>
      <point x="620" y="1026" type="curve" smooth="yes"/>
      <point x="519.295" y="961.078" type="line"/>
      <point x="519" y="1248" type="line" smooth="yes"/>
      <point x="519" y="1362"/>
      <point x="437" y="1456"/>
      <point x="334" y="1456" type="curve" smooth="yes"/>
      <point x="232" y="1456"/>
      <point x="150" y="1362"/>
      <point x="150" y="1248" type="curve" smooth="yes"/>
      <point x="150" y="722.423" type="line"/>
      <point x="25" y="641" type="line" smooth="yes"/>
      <point x="-4.7041" y="621.548"/>
      <point x="-18" y="589"/>
      <point x="-18" y="558" type="curve" smooth="yes"/>
      <point x="-18" y="503"/>
      <point x="21" y="446"/>
      <point x="74" y="446" type="curve"/>
      <point x="74" y="446"/>
      <point x="104" y="453"/>
      <point x="122" y="462" type="curve"/>
      <point x="150" y="479.924" type="line"/>
      <point x="150" y="301" type="line" smooth="yes"/>
      <point x="150" y="153"/>
      <point x="192" y="0"/>
    </contour>
  </outline>
</glyph>
<glyph name="eng" format="1">
  <advance width="1237"/>
  <unicode hex="014B"/>
  <outline>
    <contour>
      <point x="369" y="-357" type="curve" smooth="yes"/>
      <point x="482.869" y="-385.101"/>
      <point x="585.991" y="-400.603"/>
      <point x="676.819" y="-400.603" type="curve" smooth="yes"/>
      <point x="957.694" y="-400.603"/>
      <point x="1121" y="-252.356"/>
      <point x="1121" y="130" type="curve" smooth="yes"/>
      <point x="1121" y="641" type="line" smooth="yes"/>
      <point x="1121" y="889"/>
      <point x="980" y="1027"/>
      <point x="787" y="1027" type="curve" smooth="yes"/>
      <point x="613" y="1027"/>
      <point x="493" y="961"/>
      <point x="435" y="827" type="curve"/>
      <point x="435" y="831" type="line" smooth="yes"/>
      <point x="435" y="947"/>
      <point x="387" y="1007"/>
      <point x="279" y="1007" type="curve" smooth="yes"/>
      <point x="169" y="1007"/>
      <point x="118" y="951"/>
      <point x="118" y="833" type="curve" smooth="yes"/>
      <point x="118" y="214" type="line" smooth="yes"/>
      <point x="118" y="76"/>
      <point x="160" y="0"/>
      <point x="271" y="0" type="curve" smooth="yes"/>
      <point x="388" y="0"/>
      <point x="436" y="76"/>
      <point x="436" y="214" type="curve" smooth="yes"/>
      <point x="436" y="594" type="line" smooth="yes"/>
      <point x="436" y="726"/>
      <point x="527" y="819"/>
      <point x="641" y="819" type="curve" smooth="yes"/>
      <point x="732" y="819"/>
      <point x="803" y="757"/>
      <point x="803" y="635" type="curve" smooth="yes"/>
      <point x="803" y="70" type="line" smooth="yes"/>
      <point x="803" y="-105.432"/>
      <point x="753.19" y="-188.134"/>
      <point x="610.37" y="-188.134" type="curve" smooth="yes"/>
      <point x="556.991" y="-188.134"/>
      <point x="490.62" y="-176.581"/>
      <point x="409" y="-154" type="curve" smooth="yes"/>
      <point x="397.756" y="-150.653"/>
      <point x="387.043" y="-149.11"/>
      <point x="376.946" y="-149.11" type="curve" smooth="yes"/>
      <point x="318.277" y="-149.11"/>
      <point x="280.443" y="-201.195"/>
      <point x="280.443" y="-253.877" type="curve" smooth="yes"/>
      <point x="280.443" y="-297.754"/>
      <point x="306.688" y="-342.045"/>
    </contour>
  </outline>
</glyph>
<glyph name="florin" format="1">
  <advance width="1298"/>
  <unicode hex="0192"/>
  <outline>
    <contour>
      <point x="113" y="-543" type="curve" smooth="yes"/>
      <point x="346" y="-543"/>
      <point x="512" y="-359"/>
      <point x="611" y="88" type="curve" smooth="yes"/>
      <point x="659" y="294"/>
      <point x="696" y="486"/>
      <point x="733" y="665" type="curve"/>
      <point x="916" y="665" type="line" smooth="yes"/>
      <point x="1007" y="665"/>
      <point x="1063" y="704"/>
      <point x="1063" y="791" type="curve" smooth="yes"/>
      <point x="1063" y="857"/>
      <point x="1019" y="916"/>
      <point x="946" y="916" type="curve" smooth="yes"/>
      <point x="773" y="916" type="line"/>
      <point x="837" y="1250"/>
      <point x="903" y="1413"/>
      <point x="1039" y="1428" type="curve" smooth="yes"/>
      <point x="1134" y="1439"/>
      <point x="1202" y="1466"/>
      <point x="1202" y="1543" type="curve" smooth="yes"/>
      <point x="1202" y="1597"/>
      <point x="1159" y="1630"/>
      <point x="1067" y="1630" type="curve" smooth="yes"/>
      <point x="800" y="1630"/>
      <point x="593" y="1381"/>
      <point x="529" y="916" type="curve"/>
      <point x="362" y="916" type="line" smooth="yes"/>
      <point x="288" y="916"/>
      <point x="245" y="856"/>
      <point x="245" y="798" type="curve" smooth="yes"/>
      <point x="245" y="691"/>
      <point x="325" y="665"/>
      <point x="417" y="665" type="curve" smooth="yes"/>
      <point x="490" y="665" type="line"/>
      <point x="442" y="403"/>
      <point x="403" y="217"/>
      <point x="367" y="87" type="curve" smooth="yes"/>
      <point x="295" y="-202"/>
      <point x="232" y="-318"/>
      <point x="115" y="-328" type="curve" smooth="yes"/>
      <point x="39" y="-334"/>
      <point x="-30" y="-372"/>
      <point x="-30" y="-451" type="curve" smooth="yes"/>
      <point x="-30" y="-507"/>
      <point x="17" y="-543"/>
    </contour>
  </outline>
</glyph>
<glyph name="uni0237" format="1">
  <advance width="567"/>
  <unicode hex="0237"/>
  <outline>
    <contour>
      <point x="291" y="991" type="move" name="top"/>
    </contour>
    <contour>
      <point x="-15" y="-391" type="curve" smooth="yes"/>
      <point x="389" y="-391"/>
      <point x="449" y="-253"/>
      <point x="449" y="7" type="curve" smooth="yes"/>
      <point x="449" y="811" type="line" smooth="yes"/>
      <point x="449" y="945"/>
      <point x="410" y="1008"/>
      <point x="291" y="1008" type="curve" smooth="yes"/>
      <point x="180" y="1008"/>
      <point x="131" y="939"/>
      <point x="131" y="804" type="curve" smooth="yes"/>
      <point x="131" y="36" type="line" smooth="yes"/>
      <point x="131" y="-132"/>
      <point x="92" y="-158"/>
      <point x="-21" y="-161" type="curve" smooth="yes"/>
      <point x="-163" y="-161"/>
      <point x="-149" y="-391"/>
    </contour>
  </outline>
</glyph>
<glyph name="hungarumlaut" format="1">
  <advance width="569"/>
  <unicode hex="02DD"/>
  <outline>
    <contour>
      <point x="174" y="1040" type="move" name="_top"/>
    </contour>
    <contour>
      <point x="-43" y="1217" type="curve" smooth="yes"/>
      <point x="-26" y="1217"/>
      <point x="-9" y="1220"/>
      <point x="10" y="1237" type="curve" smooth="yes"/>
      <point x="304" y="1488" type="line" smooth="yes"/>
      <point x="335" y="1518"/>
      <point x="354" y="1540"/>
      <point x="354" y="1579" type="curve" smooth="yes"/>
      <point x="354" y="1648"/>
      <point x="284" y="1708"/>
      <point x="216" y="1708" type="curve" smooth="yes"/>
      <point x="176" y="1708"/>
      <point x="140" y="1676"/>
      <point x="109" y="1627" type="curve"/>
      <point x="-90" y="1345" type="line" smooth="yes"/>
      <point x="-103" y="1324"/>
      <point x="-115" y="1306"/>
      <point x="-115" y="1284" type="curve" smooth="yes"/>
      <point x="-115" y="1242"/>
      <point x="-78" y="1217"/>
    </contour>
    <contour>
      <point x="401" y="1216" type="curve" smooth="yes"/>
      <point x="424" y="1216"/>
      <point x="435" y="1219"/>
      <point x="455" y="1237" type="curve" smooth="yes"/>
      <point x="750" y="1488" type="line" smooth="yes"/>
      <point x="782" y="1519"/>
      <point x="799" y="1544"/>
      <point x="799" y="1578" type="curve" smooth="yes"/>
      <point x="799" y="1647"/>
      <point x="726" y="1708"/>
      <point x="661" y="1708" type="curve" smooth="yes"/>
      <point x="621" y="1708"/>
      <point x="582" y="1676"/>
      <point x="555" y="1630" type="curve"/>
      <point x="353" y="1345" type="line" smooth="yes"/>
      <point x="341" y="1324"/>
      <point x="332" y="1310"/>
      <point x="332" y="1290" type="curve" smooth="yes"/>
      <point x="332" y="1248"/>
      <point x="358" y="1216"/>
    </contour>
  </outline>
</glyph>
<glyph name="Delta" format="1">
  <advance width="1401"/>
  <unicode hex="0394"/>
  <outline>
    <contour>
      <point x="34" y="0" type="line"/>
      <point x="1367" y="0" type="line"/>
      <point x="903" y="1364" type="line"/>
      <point x="829" y="1531"/>
      <point x="543" y="1518"/>
      <point x="494" y="1364" type="curve" smooth="yes"/>
    </contour>
    <contour>
      <point x="372" y="190" type="line"/>
      <point x="691" y="1199" type="line"/>
      <point x="1023" y="190" type="line"/>
    </contour>
  </outline>
</glyph>
<glyph name="pi" format="1">
  <advance width="1381"/>
  <unicode hex="03C0"/>
  <outline>
    <contour>
      <point x="1086" y="-40" type="curve" smooth="yes"/>
      <point x="1342" y="-3"/>
      <point x="1134" y="126"/>
      <point x="1124" y="648" type="curve" smooth="yes"/>
      <point x="1119" y="857" type="line"/>
      <point x="1207" y="857" type="line" smooth="yes"/>
      <point x="1279" y="857"/>
      <point x="1327" y="898"/>
      <point x="1327" y="985" type="curve" smooth="yes"/>
      <point x="1327" y="1077"/>
      <point x="1272" y="1102"/>
      <point x="1208" y="1102" type="curve" smooth="yes"/>
      <point x="201" y="1102" type="line" smooth="yes"/>
      <point x="124" y="1102"/>
      <point x="83" y="1047"/>
      <point x="83" y="984" type="curve" smooth="yes"/>
      <point x="83" y="893"/>
      <point x="141" y="857"/>
      <point x="217" y="857" type="curve" smooth="yes"/>
      <point x="310" y="857" type="line"/>
      <point x="310" y="451"/>
      <point x="190" y="182"/>
      <point x="150" y="98" type="curve"/>
      <point x="105" y="-28"/>
      <point x="363" y="-121"/>
      <point x="433" y="54" type="curve"/>
      <point x="471" y="127"/>
      <point x="581" y="471"/>
      <point x="581" y="857" type="curve"/>
      <point x="847" y="857" type="line"/>
      <point x="847" y="689" type="line" smooth="yes"/>
      <point x="847" y="185"/>
      <point x="860" y="-76"/>
    </contour>
  </outline>
</glyph>
<glyph name="Euro" format="1">
  <advance width="1476"/>
  <unicode hex="20AC"/>
  <outline>
    <contour>
      <point x="907" y="-38" type="curve" smooth="yes"/>
      <point x="1108" y="-38"/>
      <point x="1250" y="17"/>
      <point x="1357" y="99" type="curve" smooth="yes"/>
      <point x="1408.57" y="139.334"/>
      <point x="1428.67" y="186.117"/>
      <point x="1428.67" y="228.652" type="curve" smooth="yes"/>
      <point x="1428.67" y="298.25"/>
      <point x="1374.87" y="356.476"/>
      <point x="1317.13" y="356.476" type="curve" smooth="yes"/>
      <point x="1303.42" y="356.476"/>
      <point x="1289.49" y="353.193"/>
      <point x="1276" y="346" type="curve" smooth="yes"/>
      <point x="1173" y="288"/>
      <point x="1035" y="254"/>
      <point x="937" y="254" type="curve" smooth="yes"/>
      <point x="762.975" y="254"/>
      <point x="651.009" y="337.932"/>
      <point x="601.102" y="496" type="curve"/>
      <point x="976" y="496" type="line" smooth="yes"/>
      <point x="1018.89" y="496"/>
      <point x="1040.64" y="528.814"/>
      <point x="1040.64" y="562.086" type="curve" smooth="yes"/>
      <point x="1040.64" y="596.3"/>
      <point x="1017.64" y="631"/>
      <point x="971" y="631" type="curve" smooth="yes"/>
      <point x="575.049" y="631" type="line"/>
      <point x="572.35" y="659.786"/>
      <point x="571" y="690.129"/>
      <point x="571" y="722" type="curve" smooth="yes"/>
      <point x="571" y="755.622"/>
      <point x="572.167" y="786.902"/>
      <point x="574.421" y="816" type="curve"/>
      <point x="976" y="816" type="line" smooth="yes"/>
      <point x="1018.89" y="816"/>
      <point x="1040.64" y="848.814"/>
      <point x="1040.64" y="882.086" type="curve" smooth="yes"/>
      <point x="1040.64" y="916.3"/>
      <point x="1017.64" y="951"/>
      <point x="971" y="951" type="curve" smooth="yes"/>
      <point x="596.176" y="951" type="line"/>
      <point x="651.958" y="1159.57"/>
      <point x="793.474" y="1195"/>
      <point x="950" y="1195" type="curve" smooth="yes"/>
      <point x="1057" y="1195"/>
      <point x="1157" y="1159"/>
      <point x="1226" y="1129" type="curve" smooth="yes"/>
      <point x="1248.34" y="1119.35"/>
      <point x="1269.42" y="1115.03"/>
      <point x="1288.84" y="1115.03" type="curve" smooth="yes"/>
      <point x="1364.95" y="1115.03"/>
      <point x="1415.41" y="1181.45"/>
      <point x="1415.41" y="1253.44" type="curve" smooth="yes"/>
      <point x="1415.41" y="1301.98"/>
      <point x="1392.47" y="1353.05"/>
      <point x="1339" y="1388" type="curve"/>
      <point x="1281" y="1418"/>
      <point x="1163" y="1487"/>
      <point x="929" y="1487" type="curve" smooth="yes"/>
      <point x="582.962" y="1487"/>
      <point x="304.805" y="1292.86"/>
      <point x="217.569" y="951" type="curve"/>
      <point x="83" y="951" type="line" smooth="yes"/>
      <point x="40" y="951"/>
      <point x="18.5" y="917.25"/>
      <point x="18.5" y="883.5" type="curve" smooth="yes"/>
      <point x="18.5" y="849.75"/>
      <point x="40" y="816"/>
      <point x="83" y="816" type="curve" smooth="yes"/>
      <point x="194.049" y="816" type="line"/>
      <point x="190.712" y="782.441"/>
      <point x="189" y="747.763"/>
      <point x="189" y="712" type="curve" smooth="yes"/>
      <point x="189" y="684.271"/>
      <point x="190.047" y="657.269"/>
      <point x="192.095" y="631" type="curve"/>
      <point x="83" y="631" type="line" smooth="yes"/>
      <point x="40" y="631"/>
      <point x="18.5" y="597.25"/>
      <point x="18.5" y="563.5" type="curve" smooth="yes"/>
      <point x="18.5" y="529.75"/>
      <point x="40" y="496"/>
      <point x="83" y="496" type="curve" smooth="yes"/>
      <point x="212.686" y="496" type="line"/>
      <point x="293.99" y="147.714"/>
      <point x="575.074" y="-38"/>
    </contour>
  </outline>
</glyph>
<glyph name="emptyset" format="1">
  <advance width="1745"/>
  <unicode hex="2205"/>
  <outline>
    <contour>
      <point x="411" y="-3" type="curve" smooth="yes"/>
      <point x="446" y="-7"/>
      <point x="475" y="32"/>
      <point x="501" y="67" type="curve" smooth="yes"/>
      <point x="1378" y="1200" type="line"/>
      <point x="1395" y="1226"/>
      <point x="1418" y="1254"/>
      <point x="1421" y="1280" type="curve" smooth="yes"/>
      <point x="1426" y="1314"/>
      <point x="1400" y="1348"/>
      <point x="1367" y="1352" type="curve" smooth="yes"/>
      <point x="1344" y="1355"/>
      <point x="1321" y="1346"/>
      <point x="1301" y="1320" type="curve" smooth="yes"/>
      <point x="395" y="146" type="line" smooth="yes"/>
      <point x="377" y="123"/>
      <point x="355" y="90"/>
      <point x="352" y="74" type="curve" smooth="yes"/>
      <point x="347" y="38"/>
      <point x="374" y="2"/>
    </contour>
    <contour>
      <point x="874" y="265" type="curve" smooth="yes"/>
      <point x="623" y="265"/>
      <point x="442" y="451"/>
      <point x="442" y="680" type="curve" smooth="yes"/>
      <point x="442" y="917"/>
      <point x="630" y="1095"/>
      <point x="874" y="1095" type="curve" smooth="yes"/>
      <point x="1123" y="1095"/>
      <point x="1304" y="909"/>
      <point x="1304" y="680" type="curve" smooth="yes"/>
      <point x="1304" y="437"/>
      <point x="1106" y="265"/>
    </contour>
    <contour>
      <point x="874" y="103" type="curve" smooth="yes"/>
      <point x="1206" y="103"/>
      <point x="1478" y="363"/>
      <point x="1478" y="680" type="curve" smooth="yes"/>
      <point x="1478" y="1014"/>
      <point x="1192" y="1262"/>
      <point x="874" y="1262" type="curve" smooth="yes"/>
      <point x="526" y="1262"/>
      <point x="267" y="988"/>
      <point x="267" y="680" type="curve" smooth="yes"/>
      <point x="267" y="350"/>
      <point x="550" y="103"/>
    </contour>
  </outline>
</glyph>
<glyph name="minus" format="1">
  <advance width="837"/>
  <unicode hex="2212"/>
  <outline>
    <contour>
      <point x="165" y="413" type="curve" smooth="yes"/>
      <point x="641" y="413" type="line" smooth="yes"/>
      <point x="729" y="413"/>
      <point x="785" y="454"/>
      <point x="785" y="537" type="curve" smooth="yes"/>
      <point x="785" y="640"/>
      <point x="709" y="662"/>
      <point x="641" y="662" type="curve" smooth="yes"/>
      <point x="192" y="662" type="line" smooth="yes"/>
      <point x="100" y="662"/>
      <point x="47" y="621"/>
      <point x="47" y="538" type="curve" smooth="yes"/>
      <point x="47" y="466"/>
      <point x="94" y="413"/>
    </contour>
  </outline>
</glyph>
<glyph name="integral" format="1">
  <advance width="852"/>
  <unicode hex="222B"/>
  <outline>
    <contour>
      <point x="182" y="-366" type="curve"/>
      <point x="393" y="-366"/>
      <point x="571" y="-264"/>
      <point x="571" y="210" type="curve" smooth="yes"/>
      <point x="571" y="577"/>
      <point x="537" y="862"/>
      <point x="537" y="1210" type="curve" smooth="yes"/>
      <point x="537" y="1471"/>
      <point x="570" y="1592"/>
      <point x="685" y="1610" type="curve" smooth="yes"/>
      <point x="774" y="1625"/>
      <point x="832" y="1638"/>
      <point x="832" y="1715" type="curve" smooth="yes"/>
      <point x="832" y="1770"/>
      <point x="786" y="1817"/>
      <point x="688" y="1817" type="curve" smooth="yes"/>
      <point x="430" y="1817"/>
      <point x="292" y="1633"/>
      <point x="292" y="1241" type="curve" smooth="yes"/>
      <point x="292" y="876"/>
      <point x="328" y="586"/>
      <point x="328" y="212" type="curve" smooth="yes"/>
      <point x="328" y="-75"/>
      <point x="266" y="-152"/>
      <point x="159" y="-152" type="curve" smooth="yes"/>
      <point x="86" y="-152"/>
      <point x="39" y="-194"/>
      <point x="39" y="-255" type="curve" smooth="yes"/>
      <point x="39" y="-309"/>
      <point x="83" y="-358"/>
    </contour>
  </outline>
</glyph>
